<svg width="1024" height="1024" viewBox="0 0 1024 1024" fill="none" xmlns="http://www.w3.org/2000/svg">
<g opacity="0.5">
<path d="M830.31 221.106C784.088 169.36 718.031 138.841 648.061 136.985C645.6 136.942 643.006 136.883 640.515 136.883C573.302 136.883 508.758 163.049 460.994 209.623C421.576 248.221 369.188 311.407 369.188 414.184V502.454L304.406 566.399C301.545 569.145 295.882 567.86 292.917 566.647C279.095 561.231 264.357 558.445 249.482 558.437C184.67 558.437 132.089 610.241 132.089 674.128C132.089 704.779 144.452 734.202 166.422 755.882C183.896 773.042 206.572 784.116 231.011 787.424C234.364 811.495 245.59 833.832 262.987 851.048C273.891 861.809 286.84 870.347 301.095 876.173C315.35 881.999 330.63 884.998 346.062 885C410.888 885 463.455 833.195 463.455 769.308C463.455 754.626 460.594 740.017 455.079 726.386C453.597 722.734 452.766 717.62 455.316 715.064L520.157 651.133H610.822C668.222 651.133 718.669 636.275 764.994 605.727C833.512 560.613 878.681 489.787 888.865 411.422C898.086 340.83 877.288 273.247 830.31 221.106ZM511.678 398.055C511.589 417.339 495.668 432.927 476.1 432.854C456.532 432.781 439.81 417.047 440.803 397.792C445.043 315.877 519.594 222.699 604.211 209.93C623.527 207.008 640.93 222.246 642.768 241.428C644.607 260.639 630.286 277.688 610.807 279.514C569.863 283.342 511.871 356.433 511.678 398.055ZM389.007 752.435C391.201 757.811 392.328 763.567 392.328 769.367C392.328 794.436 371.708 814.758 346.269 814.758H346.106C328.317 814.758 305.132 803.334 301.47 777.665L294.058 725.363L240.973 717.986C215.016 714.362 203.156 691.586 203.156 673.997V673.968C203.156 648.854 223.821 628.489 249.304 628.489C255.071 628.489 260.793 629.555 266.159 631.63C276.744 635.866 288.069 638.058 299.514 638.087H299.855C320.386 638.087 340.132 630.125 354.764 615.925L385.049 586.048C396.675 606.979 414.181 624.16 435.467 635.53L405.092 665.479C382.411 687.744 376.288 721.068 389.022 752.435H389.007Z" fill="black" style="fill:black;fill-opacity:1;"/>
</g>
</svg>
